<svg height="512pt" viewBox="0 0 512 512" width="512pt" xmlns="http://www.w3.org/2000/svg"><path d="m512 256c0 141.386719-114.613281 256-256 256s-256-114.613281-256-256 114.613281-256 256-256 256 114.613281 256 256zm0 0" fill="#b5e237"/><path d="m512 256c0 141.378906-114.621094 256-256 256s-256-114.621094-256-256c0-46.21875 12.25-89.570312 33.679688-127 44.121093 77.070312 127.160156 129 222.320312 129s178.210938-51.929688 222.320312-129c21.429688 37.429688 33.679688 80.78125 33.679688 127zm0 0" fill="#95d600"/><path d="m481.261719 377.699219v.011719c-43.292969 79.96875-127.941407 134.289062-225.261719 134.289062s-181.96875-54.320312-225.261719-134.289062v-.011719zm0 0" fill="#85af12"/><path d="m323.40625 240.019531h-135.589844c-16.71875 0-27.996094-17.085937-21.421875-32.457031l16-37.425781c3.667969-8.574219 12.097657-14.136719 21.421875-14.136719h103.589844c9.324219 0 17.753906 5.5625 21.421875 14.136719l16 37.425781c6.570313 15.371094-4.703125 32.457031-21.421875 32.457031zm0 0" fill="#313b5a"/><path d="m323.40625 240.019531h-67.796875v-84.019531h51.792969c9.328125 0 17.757812 5.5625 21.421875 14.136719l16.003906 37.425781c6.570313 15.371094-4.703125 32.457031-21.421875 32.457031zm0 0" fill="#20273a"/><path d="m300.59375 233.640625h-89.964844c-11.09375 0-18.574218-11.335937-14.210937-21.539063l10.617187-24.828124c2.433594-5.683594 8.023438-9.378907 14.210938-9.378907h68.730468c6.183594 0 11.777344 3.695313 14.207032 9.378907l10.617187 24.828124c4.359375 10.203126-3.117187 21.539063-14.207031 21.539063zm0 0" fill="#fff"/><path d="m300.59375 233.640625h-44.59375v-55.746094h33.976562c6.183594 0 11.777344 3.695313 14.210938 9.378907l10.617188 24.828124c4.355468 10.203126-3.121094 21.539063-14.210938 21.539063zm0 0" fill="#8fc9f7"/><path d="m455.660156 254.589844v161.640625c-46.910156 58.390625-118.921875 95.769531-199.660156 95.769531-35.730469 0-69.738281-7.320312-100.628906-20.539062-38.921875-16.660157-72.882813-42.679688-99.03125-75.230469v-161.640625c0-23.75 19.261718-43.011719 43.019531-43.011719h313.28125c23.757813 0 43.019531 19.261719 43.019531 43.011719zm0 0" fill="#474f6f"/><path d="m455.660156 254.589844v161.640625c-46.910156 58.390625-118.921875 95.769531-199.660156 95.769531-35.730469 0-69.738281-7.320312-100.628906-20.539062v-279.882813h257.269531c23.757813 0 43.019531 19.261719 43.019531 43.011719zm0 0" fill="#313b5a"/><path d="m455.660156 254.589844v161.640625c-46.910156 58.390625-118.921875 95.769531-199.660156 95.769531v-300.421875h156.640625c23.757813 0 43.019531 19.261719 43.019531 43.011719zm0 0" fill="#20273a"/><path d="m419.183594 266.445312h-65.457032c-9.675781 0-17.523437-7.84375-17.523437-17.523437 0-9.675781 7.847656-17.519531 17.523437-17.519531h65.457032c9.675781 0 17.519531 7.84375 17.519531 17.519531 0 9.679687-7.84375 17.523437-17.519531 17.523437zm0 0" fill="#ff3445"/><path d="m356.628906 373.347656c0 55.578125-45.054687 100.628906-100.628906 100.628906-55.578125 0-100.628906-45.050781-100.628906-100.628906 0-55.574218 45.050781-100.628906 100.628906-100.628906 55.574219 0 100.628906 45.054688 100.628906 100.628906zm0 0" fill="#ff3445"/><path d="m356.628906 373.347656c0 55.574219-45.050781 100.628906-100.628906 100.628906v-201.257812c55.578125 0 100.628906 45.054688 100.628906 100.628906zm0 0" fill="#dd1265"/><path d="m323.972656 373.347656c0 37.542969-30.433594 67.976563-67.972656 67.976563-37.542969 0-67.976562-30.433594-67.976562-67.976563 0-37.539062 30.433593-67.972656 67.976562-67.972656 37.539062 0 67.972656 30.433594 67.972656 67.972656zm0 0" fill="#313b5a"/><path d="m323.972656 373.347656c0 37.542969-30.429687 67.976563-67.972656 67.976563v-135.949219c37.542969 0 67.972656 30.433594 67.972656 67.972656zm0 0" fill="#20273a"/><path d="m302.628906 373.347656c0 25.753906-20.875 46.628906-46.628906 46.628906s-46.628906-20.875-46.628906-46.628906c0-25.75 20.875-46.628906 46.628906-46.628906s46.628906 20.878906 46.628906 46.628906zm0 0" fill="#474f6f"/><path d="m302.628906 373.347656c0 25.753906-20.875 46.632813-46.628906 46.632813v-93.261719c25.753906 0 46.628906 20.878906 46.628906 46.628906zm0 0" fill="#313b5a"/><path d="m277.746094 373.347656c0 12.011719-9.738282 21.746094-21.746094 21.746094s-21.746094-9.734375-21.746094-21.746094c0-12.007812 9.738282-21.742187 21.746094-21.742187s21.746094 9.734375 21.746094 21.742187zm0 0" fill="#20273a"/><g fill="#fff"><path d="m281.265625 358.960938c0 6.007812-4.871094 10.878906-10.878906 10.878906-6.007813 0-10.875-4.871094-10.875-10.878906 0-6.007813 4.867187-10.875 10.875-10.875 6.007812 0 10.878906 4.867187 10.878906 10.875zm0 0"/><path d="m134.28125 238.277344v18.3125h-58.679688v-9.972656c0-8.339844 6.753907-15.097657 15.089844-15.097657h28.492188c8.339844 0 15.097656-1.578125 15.097656 6.757813zm0 0"/><path d="m370.761719 240.019531h-13.238281c-4.574219 0-8.285157 3.707031-8.285157 8.285157 0 4.574218 3.710938 8.285156 8.285157 8.285156h13.238281c4.578125 0 8.285156-3.710938 8.285156-8.285156 0-4.578126-3.710937-8.285157-8.285156-8.285157zm0 0"/><path d="m415.34375 240.019531h-13.234375c-4.578125 0-8.285156 3.707031-8.285156 8.285157 0 4.574218 3.707031 8.285156 8.285156 8.285156h13.234375c4.578125 0 8.285156-3.710938 8.285156-8.285156 0-4.578126-3.707031-8.285157-8.285156-8.285157zm0 0"/></g><path d="m134.28125 238.277344v18.3125h-29.34375v-25.070313h14.246094c8.339844 0 15.097656-1.578125 15.097656 6.757813zm0 0" fill="#8fc9f7"/></svg>