<svg id="Capa_1" enable-background="new 0 0 512 512" height="512" viewBox="0 0 512 512" width="512" xmlns="http://www.w3.org/2000/svg"><circle cx="256" cy="256" fill="#374c81" r="256"/><path d="m512 256c0 87.11-43.52 164.07-110 210.31-41.41 28.8-91.73 45.69-146 45.69s-104.59-16.89-146-45.69c-66.48-46.24-110-123.2-110-210.31 0-46.22 12.25-89.57 33.68-127 44.12 77.07 127.16 129 222.32 129s178.21-51.93 222.32-129c21.43 37.43 33.68 80.78 33.68 127z" fill="#323b5a"/><path d="m422.28 196.7v253.94c-44.73 38.26-102.81 61.36-166.28 61.36s-121.55-23.1-166.28-61.36v-253.94c0-9.53 7.73-17.25 17.26-17.25h298.04c9.53 0 17.26 7.72 17.26 17.25z" fill="#ff9d66"/><path d="m422.28 196.7v253.94c-44.73 38.26-102.81 61.36-166.28 61.36v-332.55h149.02c9.53 0 17.26 7.72 17.26 17.25z" fill="#f4863d"/><path d="m375.209 466.533h-77.222c-6.032 0-10.921-4.889-10.921-10.921 0-6.031 4.889-10.921 10.921-10.921h77.222c6.031 0 10.921 4.889 10.921 10.921 0 6.031-4.89 10.921-10.921 10.921z" fill="#374c81"/><path d="m375.209 425.761h-77.222c-6.032 0-10.921-4.889-10.921-10.921 0-6.031 4.889-10.921 10.921-10.921h77.222c6.031 0 10.921 4.889 10.921 10.921 0 6.032-4.89 10.921-10.921 10.921z" fill="#374c81"/><path d="m297.155 179.449v67.295c0 8.049-6.535 14.584-14.584 14.584h-53.142c-8.049 0-14.584-6.535-14.584-14.584v-67.295z" fill="#fdf0b2"/><path d="m297.155 179.449v67.295c0 8.049-6.535 14.584-14.584 14.584h-26.571v-81.88h41.155z" fill="#fede8c"/><path d="m470.44 140.045v39.032c0 50.713-30.519 94.293-74.2 113.378h-.005c-43.68-19.079-74.195-62.665-74.195-113.378v-39.032c0-10.802 8.754-19.556 19.556-19.556h109.287c10.803-.001 19.557 8.753 19.557 19.556z" fill="#fff"/><path d="m470.44 140.045v39.032c0 50.713-30.519 94.293-74.2 113.378h-.005c-43.68-19.079-47.797-62.665-47.797-113.378v-39.032c0-10.802 8.754-19.556 19.556-19.556h82.888c10.804-.001 19.558 8.753 19.558 19.556z" fill="#d1f6ff"/><path d="m470.44 140.045v39.032c0 50.713-30.519 94.293-74.2 113.378v-171.967h54.643c10.803 0 19.557 8.754 19.557 19.557z" fill="#b3f4ff"/><path d="m444.043 149.823v27.362c0 20.249-5.908 39.8-17.082 56.551-8.086 12.117-18.542 22.272-30.72 29.917v.005h-.005c-12.173-7.645-22.633-17.805-30.72-29.922-11.169-16.745-17.077-36.302-17.077-56.551v-27.362c0-2.46 1.998-4.457 4.457-4.457h86.688c2.461-.001 4.459 1.997 4.459 4.457z" fill="#369cef"/><path d="m444.043 149.823v27.362c0 20.249-5.908 39.8-17.082 56.551-8.086 12.117-18.542 22.272-30.72 29.917-6.089-7.645-11.319-17.804-15.36-29.917-5.587-16.745-8.538-36.302-8.538-56.551v-27.362c0-2.46.999-4.457 2.229-4.457h65.014c2.459-.001 4.457 1.997 4.457 4.457z" fill="#008add"/><path d="m444.043 149.823v27.362c0 20.249-5.908 39.8-17.082 56.551-8.086 12.117-18.542 22.272-30.72 29.917v-118.288h43.344c2.46 0 4.458 1.998 4.458 4.458z" fill="#0077c8"/><path d="m421.115 185.9v8.023c0 2.362-1.91 4.284-4.284 4.284h-8.012c-2.373 0-4.284 1.91-4.284 4.284v8.012c0 2.373-1.922 4.284-4.284 4.284h-8.023c-2.362 0-4.284-1.91-4.284-4.284v-8.012c0-2.374-1.91-4.284-4.284-4.284h-8.012c-2.373 0-4.284-1.922-4.284-4.284v-8.023c0-2.362 1.91-4.284 4.284-4.284h8.012c2.374 0 4.284-1.91 4.284-4.284v-8.012c0-2.373 1.922-4.284 4.284-4.284h8.023c2.362 0 4.284 1.91 4.284 4.284v8.012c0 2.373 1.91 4.284 4.284 4.284h8.012c2.374 0 4.284 1.922 4.284 4.284z" fill="#d1f6ff"/><path d="m421.115 185.9v8.023c0 2.362-1.91 4.284-4.284 4.284h-8.012c-2.373 0-4.284 1.91-4.284 4.284v8.012c0 2.373-1.922 4.284-4.284 4.284h-4.006v-49.749h4.006c2.362 0 4.284 1.91 4.284 4.284v8.012c0 2.373 1.91 4.284 4.284 4.284h8.012c2.374-.002 4.284 1.92 4.284 4.282z" fill="#b3f4ff"/></svg>