<svg id="Capa_1" enable-background="new 0 0 512 512" height="512" viewBox="0 0 512 512" width="512" xmlns="http://www.w3.org/2000/svg"><path d="m436.61 437.42c0-.01 0-.01 0-.01l-.963.398c-115.079 47.526-244.274 47.67-359.458.4l-.019-.008c-47.02-46.42-76.17-110.909-76.17-182.199 0-141.042 114.915-255.978 255.957-256.001 141.4-.023 256.043 114.606 256.043 256 0 70.9-28.82 135.07-75.39 181.42z" fill="#807bef"/><path d="m436.61 437.42c0-.01 0-.01 0-.01l-.965.399c-115.078 47.526-244.271 47.67-359.454.401l-.02-.01c-47.031-46.43-76.171-110.91-76.171-182.2 0-46.22 12.25-89.57 33.68-127 44.12 77.07 127.16 129 222.32 129s178.21-51.93 222.32-129c21.43 37.43 33.68 80.78 33.68 127 0 70.89-28.82 135.06-75.39 181.42z" fill="#6666e2"/><path d="m396.144 284.307-141.147-139.141-139.141 141.147 16.248 16.017 123.124-124.898 124.899 123.123z" fill="#fdf0b2"/><path d="m255.108 161.292-131.122 133.026 8.123 8.007 123.128-124.89 124.89 123.115 8.007-8.122z" fill="#fede8c"/><path d="m436.61 437.41c-13.49 13.44-28.47 25.37-44.66 35.54h-.01c-11.79 7.41-24.23 13.88-37.21 19.31l-98.73.7-.91.01-94.44.68c-13.06-5.24-25.59-11.54-37.48-18.77-17.08-10.39-32.85-22.72-47-36.68l-1.16-162.23 180.08-1.29.91-.01 179.43-1.28z" fill="#ffe400"/><g fill="#fcbf12"><path d="m436.61 437.41c-13.49 13.44-28.47 25.37-44.66 35.54h-.01c-11.79 7.41-24.22 13.88-37.2 19.31h-.01l-98.73.7v-218.29l179.43-1.28z"/><path d="m454.63 285.91c.03 3.52-2.81 6.4-6.33 6.42l-192.3 1.38-193.59 1.39c-3.52.02-6.4-2.81-6.42-6.34l-.19-25.31c-.02-3.52 2.81-6.4 6.34-6.42l193.86-1.39 192.03-1.37c3.52-.03 6.4 2.81 6.42 6.33z"/><path d="m391.94 472.95c-38.43 24.14-83.72 38.35-132.29 39.02-1.22.02-2.43.03-3.65.03-48.64 0-94.11-13.57-132.83-37.12l132.83-.95z"/><path d="m125.426 453.02c-9.048.065-16.435-7.218-16.5-16.266l-.743-103.758c-.065-9.048 7.217-16.435 16.266-16.5 9.048-.065 16.435 7.218 16.5 16.266l.742 103.758c.065 9.048-7.217 16.435-16.265 16.5z"/><path d="m190.957 452.551c-9.048.065-16.435-7.218-16.5-16.265l-.743-103.758c-.065-9.048 7.217-16.435 16.266-16.5 9.048-.065 16.435 7.218 16.5 16.266l.742 103.758c.066 9.047-7.217 16.434-16.265 16.499z"/><path d="m272.75 435.58c.07 9.05-7.21 16.44-16.26 16.5-.16 0-.33 0-.49-.01-8.82-.18-15.95-7.37-16.01-16.25l-.74-103.76c-.07-9.05 7.21-16.44 16.26-16.5h.13c.12 0 .24 0 .36.01 8.82.18 15.95 7.37 16.01 16.25z"/></g><path d="m322.02 451.613c-9.048.065-16.435-7.217-16.5-16.265l-.742-103.758c-.065-9.048 7.218-16.435 16.266-16.5 9.048-.065 16.435 7.218 16.5 16.266l.742 103.758c.064 9.047-7.218 16.434-16.266 16.499z" fill="#ff9f00"/><path d="m387.551 451.144c-9.048.065-16.435-7.218-16.5-16.266l-.743-103.758c-.065-9.048 7.218-16.435 16.266-16.5 9.048-.065 16.435 7.218 16.5 16.266l.742 103.758c.065 9.048-7.217 16.435-16.265 16.5z" fill="#ff9f00"/><path d="m305.103 133.636c-1.489 24.068-20.734 43.599-44.778 45.433-1.168.091-2.335.135-3.485.144-12.366.089-24.052-4.4-33.23-12.84-9.885-9.102-15.618-22.029-15.714-35.463-.045-6.306 5.029-11.444 11.326-11.489s11.444 5.02 11.489 11.326c.052 7.237 3.02 13.924 8.349 18.832 5.328 4.899 12.263 7.296 19.533 6.742 12.743-.977 22.954-11.326 23.739-24.09.712-11.45-5.997-21.842-16.695-25.864-12.592-4.738-20.788-16.334-20.883-29.53l-.408-57.019c-.045-6.297 5.029-11.444 11.326-11.489s11.444 5.029 11.489 11.326l.408 57.019c.026 3.678 2.423 6.955 6.101 8.334 20.133 7.576 32.767 27.117 31.433 48.628z" fill="#fff"/><path d="m305.103 133.636c-1.489 24.068-20.734 43.599-44.778 45.433-1.168.091-2.335.135-3.485.144-12.366.089-24.052-4.4-33.23-12.84-9.885-9.102-15.618-22.029-15.714-35.463-.045-6.306 5.029-11.444 11.326-11.489l.082 11.408c.153 21.437 18.401 38.519 40.156 36.867 18.353-1.4 33.122-16.382 34.259-34.762 1.056-16.992-9.28-31.685-24.059-37.246-7.98-3-13.436-10.409-13.497-18.932l-.49-68.427c6.297-.045 11.444 5.029 11.489 11.326l.408 57.019c.026 3.678 2.423 6.955 6.101 8.334 20.132 7.576 32.766 27.117 31.432 48.628z" fill="#d1f6ff"/><path d="m304.61 44.14c.06 8.67-6.92 15.76-15.59 15.82l-66.69.48c-8.68.06-15.76-6.93-15.82-15.6l-.21-28.54c-.04-5.14 2.4-9.72 6.2-12.61 9.92-1.71 20.05-2.84 30.33-3.36h.02l22.39-.16c11.33.4 22.48 1.54 33.4 3.37 3.49 2.86 5.74 7.19 5.77 12.05z" fill="#374c81"/><path d="m304.61 44.14c.06 8.67-6.92 15.76-15.59 15.82l-33.35.24-.43-59.96 9.95-.07h.05c11.33.4 22.48 1.54 33.4 3.37 3.49 2.86 5.74 7.19 5.77 12.05z" fill="#323b5a"/><path d="m267.487 178.827-.16-22.334c-.045-6.3-5.189-11.371-11.489-11.326-6.3.045-11.371 5.189-11.326 11.489l.16 22.334c.045 6.3 5.189 11.371 11.489 11.326 6.301-.045 11.372-5.189 11.326-11.489z" fill="#fdf0b2"/><path d="m267.487 178.827-.16-22.334c-.045-6.3-5.189-11.371-11.489-11.326l.323 45.149c6.301-.045 11.372-5.189 11.326-11.489z" fill="#fede8c"/><path d="m272.75 435.58c.07 9.05-7.21 16.44-16.26 16.5-.16 0-.33 0-.49-.01v-136.5c8.82.18 15.95 7.37 16.01 16.25z" fill="#ff9f00"/><path d="m448.3 292.33-192.3 1.38v-38.07l192.03-1.37c3.52-.03 6.4 2.81 6.42 6.33l.18 25.31c.03 3.52-2.81 6.4-6.33 6.42z" fill="#ff9f00"/><path d="m391.95 472.95c-38.43 24.14-83.73 38.35-132.3 39.02-1.22.02-2.43.03-3.65.03v-38.07z" fill="#ff9f00"/></svg>